# xmcd
#
# Track frame offsets:
#   150
#   15902
#   31161
#   48169
#   62744
#   77021
#   95416
#   114887
#   133674
#   150249
#   168033
#   183082
#
# Disc length: 2643 seconds
#
# Revision: 0
# Processed by: cddbd v1.5.2PL0 Copyright (c) Steve Scherf et al.
# Submitted via: uFREEDB 1.6.0
#
DISCID=770a510c
DTITLE=Shedaisy - Fortuneteller's melody
DYEAR=1900
DGENRE=Country
TTITLE0=23 Days
TTITLE1=Whatever it takes
TTITLE2=Bring it on back
TTITLE3=I'm taking the wheel
TTITLE4=God bless the American housewife
TTITLE5=Kickin' in
TTITLE6=Healing side
TTITLE7=What do I know
TTITLE8=In terms of love
TTITLE9=Burn down the house
TTITLE10=Out of my mind
TTITLE11=She gets what I deserve
EXTD=
EXTT0=
EXTT1=
EXTT2=
EXTT3=
EXTT4=
EXTT5=
EXTT6=
EXTT7=
EXTT8=
EXTT9=
EXTT10=
EXTT11=
PLAYORDER=
